<svg width="320" height="182" viewBox="0 0 320 182" fill="none" xmlns="http://www.w3.org/2000/svg">
<path d="M130.15 116.19L70.75 27.8398C28.05 56.5898 0 105.34 0 160.64H106.45C106.45 142.14 115.85 125.79 130.15 116.19Z" fill="#19A284"/>
<path d="M159.979 107.047C171.079 107.047 181.329 110.397 189.829 116.147L249.228 27.7469C223.728 10.5969 193.029 0.546875 159.979 0.546875C126.929 0.546875 96.2285 10.5969 70.7285 27.7469L130.129 116.147C138.629 110.447 148.879 107.047 159.979 107.047Z" fill="#6ED8C0"/>
<path d="M249.25 27.8398L189.85 116.19C204.15 125.79 213.5 142.14 213.5 160.64H320C320 105.34 291.95 56.5898 249.25 27.8398Z" fill="#F97B26"/>
<path d="M31.2 116.25L134.35 159.65C135.1 165 137.45 170.15 141.65 174.25C151.55 183.85 167.4 183.6 177 173.65C186.6 163.75 186.35 147.9 176.4 138.3C168 130.15 155.4 129.15 145.9 135.1L34.35 106.8C28.3 105.25 25.45 113.8 31.2 116.25Z" fill="#043A33"/>
</svg>
